:FULLY-SPECIFIED
:FORCE-ALL-JOINTS-BE-3DOF
:DEGREES
204
root -2.89611 16.3119 -36.1147 3.78377 0.660897 -2.90828
lfemur -23.8723 6.69395 -8.21476
ltibia 48.5654 0 0
lfoot -23.7529 0.405645 0
ltoes -9.75364 0 0
rfemur -23.8193 -7.50683 14.6258
rtibia 50.6387 0 0
rfoot -27.5774 2.02585 0
rtoes -8.29248 0 0
lowerback 7.28738 1.95574 -1.69154
upperback -3.75759 2.54156 1.29887
thorax -8.19333 1.37498 1.95677
lowerneck -3.40643 -3.92916 -6.56385
upperneck 6.86414 -5.30476 6.04473
head 3.23683 -2.61177 2.96865
lclavicle -1.37182e-14 -9.9582e-16 0
lhumerus -26.5929 -1.77445 88.7452
lradius 24.2681 0 0
lwrist -31.431 0 0
lhand -28.2319 30.0646 0
lfingers 7.12502 0 0
lthumb -1.60996 60.0383 0
rclavicle -1.37182e-14 -9.9582e-16 0
rhumerus -32.2648 1.93162 -79.8506
rradius 30.3806 0 0
rwrist 3.1757 0 0
rhand -20.1068 -26.7913 0
rfingers 7.12502 0 0
rthumb 6.23672 -56.6795 0
205
root -2.89871 16.3085 -36.1127 3.77651 0.665002 -2.91635
lfemur -23.8891 6.71134 -8.19279
ltibia 48.6246 0 0
lfoot -23.7846 0.401752 0
ltoes -9.78515 0 0
rfemur -23.8344 -7.53795 14.6416
rtibia 50.699 0 0
rfoot -27.6138 2.04619 0
rtoes -8.2943 0 0
lowerback 7.28921 1.95477 -1.69349
upperback -3.75277 2.54015 1.30119
thorax -8.18934 1.3744 1.96055
lowerneck -3.4209 -3.92492 -6.5525
upperneck 6.88434 -5.29906 6.03533
head 3.2457 -2.60879 2.9636
lclavicle -1.34056e-14 -2.73111e-16 0
lhumerus -26.5714 -1.83036 88.7689
lradius 24.2922 0 0
lwrist -31.4035 0 0
lhand -28.2307 30.0888 0
lfingers 7.12502 0 0
lthumb -1.60878 60.0625 0
rclavicle -1.34056e-14 -2.73111e-16 0
rhumerus -32.2426 1.9667 -79.8935
rradius 30.4172 0 0
rwrist 3.15062 0 0
rhand -20.0951 -26.8059 0
rfingers 7.12502 0 0
rthumb 6.24795 -56.6937 0
206
root -2.90138 16.305 -36.1106 3.76868 0.66911 -2.9246
lfemur -23.9054 6.72898 -8.17025
ltibia 48.6848 0 0
lfoot -23.8168 0.397708 0
ltoes -9.81773 0 0
rfemur -23.8493 -7.56976 14.6577
rtibia 50.7605 0 0
rfoot -27.6509 2.06737 0
rtoes -8.29546 0 0
lowerback 7.29131 1.95374 -1.69565
upperback -3.74773 2.53866 1.30361
thorax -8.18527 1.37379 1.96455
lowerneck -3.43602 -3.91994 -6.54011
upperneck 6.9053 -5.29236 6.02499
head 3.25484 -2.60532 2.95808
lclavicle -1.30647e-14 4.96962e-16 0
lhumerus -26.5489 -1.89002 88.794
lradius 24.3179 0 0
lwrist -31.374 0 0
lhand -28.2296 30.1145 0
lfingers 7.12502 0 0
lthumb -1.6077 60.0882 0
rclavicle -1.30647e-14 4.96962e-16 0
rhumerus -32.2196 2.00376 -79.9386
rradius 30.4557 0 0
rwrist 3.12415 0 0
rhand -20.0827 -26.8213 0
rfingers 7.12502 0 0
rthumb 6.25995 -56.7088 0
207
root -2.90213 16.3036 -36.1099 3.76655 0.667316 -2.9261
lfemur -23.9142 6.73326 -8.16384
ltibia 48.7091 0 0
lfoot -23.8308 0.395432 0
ltoes -9.83072 0 0
rfemur -23.8581 -7.58027 14.6608
rtibia 50.7864 0 0
rfoot -27.6666 2.0755 0
rtoes -8.29744 0 0
lowerback 7.29221 1.95356 -1.69633
upperback -3.74599 2.53831 1.30424
thorax -8.18397 1.37366 1.96565
lowerneck -3.45016 -3.91152 -6.52957
upperneck 6.91963 -5.28073 6.015
head 3.26098 -2.59945 2.95318
lclavicle -1.29712e-14 5.6068e-16 0
lhumerus -26.5473 -1.89296 88.7991
lradius 24.312 0 0
lwrist -31.3747 0 0
lhand -28.2295 30.116 0
lfingers 7.12502 0 0
lthumb -1.60758 60.0898 0
rclavicle -1.29712e-14 5.6068e-16 0
rhumerus -32.2117 2.00324 -79.9403
rradius 30.4539 0 0
rwrist 3.128 0 0
rhand -20.0864 -26.8212 0
rfingers 7.12502 0 0
rthumb 6.25657 -56.7109 0
208
root -2.90296 16.3022 -36.109 3.76319 0.660304 -2.92707
lfemur -23.9206 6.7328 -8.15612
ltibia 48.7291 0 0
lfoot -23.845 0.388112 0
ltoes -9.84855 0 0
rfemur -23.8656 -7.58858 14.6632
rtibia 50.8116 0 0
rfoot -27.6836 2.08767 0
rtoes -8.29523 0 0
lowerback 7.2924 1.95338 -1.69832
upperback -3.74412 2.53772 1.30458
thorax -8.18214 1.37349 1.96725
lowerneck -3.46586 -3.90376 -6.51913
upperneck 6.93586 -5.26997 6.00581
head 3.26773 -2.59397 2.94843
lclavicle -1.28531e-14 6.29075e-16 0
lhumerus -26.548 -1.89238 88.8077
lradius 24.29 0 0
lwrist -31.386 0 0
lhand -28.2311 30.1135 0
lfingers 7.12502 0 0
lthumb -1.60916 60.0873 0
rclavicle -1.28531e-14 6.29075e-16 0
rhumerus -32.2003 1.99512 -79.9384
rradius 30.4388 0 0
rwrist 3.14108 0 0
rhand -20.1016 -26.8222 0
rfingers 7.12502 0 0
rthumb 6.24265 -56.7182 0
209
root -2.90386 16.3008 -36.108 3.75867 0.648466 -2.92751
lfemur -23.9248 6.72795 -8.14723
ltibia 48.7454 0 0
lfoot -23.8594 0.376169 0
ltoes -9.87085 0 0
rfemur -23.8721 -7.59485 14.6649
rtibia 50.8363 0 0
rfoot -27.7019 2.10356 0
rtoes -8.28912 0 0
lowerback 7.29196 1.95321 -1.70152
upperback -3.7421 2.5369 1.30467
thorax -8.17983 1.37327 1.96932
lowerneck -3.48315 -3.89642 -6.50859
upperneck 6.95398 -5.25976 5.99717
head 3.27508 -2.58873 2.94372
lclavicle -1.27107e-14 7.0164e-16 0
lhumerus -26.5507 -1.88855 88.8196
lradius 24.2533 0 0
lwrist -31.4069 0 0
lhand -28.2344 30.1073 0
lfingers 7.12502 0 0
lthumb -1.61232 60.0811 0
rclavicle -1.27107e-14 7.0164e-16 0
rhumerus -32.1857 1.97997 -79.9331
rradius 30.4112 0 0
rwrist 3.16271 0 0
rhand -20.1271 -26.8242 0
rfingers 7.12502 0 0
rthumb 6.21904 -56.7303 0
210
root -2.90482 16.2996 -36.1068 3.75306 0.632192 -2.92745
lfemur -23.9269 6.71907 -8.13731
ltibia 48.7581 0 0
lfoot -23.874 0.360026 0
ltoes -9.89726 0 0
rfemur -23.8774 -7.59927 14.6659
rtibia 50.8605 0 0
rfoot -27.7212 2.12288 0
rtoes -8.27943 0 0
lowerback 7.29098 1.95304 -1.70583
upperback -3.73995 2.53586 1.30453
thorax -8.17711 1.37302 1.97183
lowerneck -3.50208 -3.88925 -6.49775
upperneck 6.97396 -5.24975 5.98881
head 3.28304 -2.58356 2.93895
lclavicle -1.25443e-14 7.77867e-16 0
lhumerus -26.5555 -1.88176 88.8346
lradius 24.2031 0 0
lwrist -31.4365 0 0
lhand -28.2391 30.0976 0
lfingers 7.12502 0 0
lthumb -1.61692 60.0715 0
rclavicle -1.25443e-14 7.77867e-16 0
rhumerus -32.1681 1.95835 -79.9246
rradius 30.3723 0 0
rwrist 3.19222 0 0
rhand -20.1622 -26.8269 0
rfingers 7.12502 0 0
rthumb 6.18659 -56.7468 0
211
root -2.90584 16.2983 -36.1056 3.74644 0.611876 -2.92691
lfemur -23.9271 6.70654 -8.1265
ltibia 48.7676 0 0
lfoot -23.8887 0.340105 0
ltoes -9.9274 0 0
rfemur -23.8819 -7.60199 14.6661
rtibia 50.8843 0 0
rfoot -27.7416 2.1453 0
rtoes -8.26648 0 0
lowerback 7.28956 1.95288 -1.71115
upperback -3.73767 2.53464 1.30418
thorax -8.17401 1.37274 1.97474
lowerneck -3.52268 -3.88202 -6.48642
upperneck 6.99577 -5.23963 5.98047
head 3.29161 -2.5783 2.93402
lclavicle -1.2354e-14 8.5725e-16 0
lhumerus -26.5621 -1.87227 88.8522
lradius 24.1407 0 0
lwrist -31.4741 0 0
lhand -28.2453 30.0849 0
lfingers 7.12502 0 0
lthumb -1.62283 60.0589 0
rclavicle -1.2354e-14 8.5725e-16 0
rhumerus -32.1479 1.93083 -79.9132
rradius 30.3231 0 0
rwrist 3.22892 0 0
rhand -20.206 -26.8304 0
rfingers 7.12502 0 0
rthumb 6.14617 -56.7673 0
212
root -2.90689 16.2971 -36.1042 3.73888 0.58791 -2.92591
lfemur -23.9256 6.6907 -8.11494
ltibia 48.7744 0 0
lfoot -23.9037 0.316828 0
ltoes -9.9609 0 0
rfemur -23.8855 -7.60319 14.6657
rtibia 50.9077 0 0
rfoot -27.7629 2.17053 0
rtoes -8.25058 0 0
lowerback 7.28779 1.95273 -1.71739
upperback -3.73526 2.53324 1.30365
thorax -8.17059 1.37242 1.97801
lowerneck -3.54501 -3.87448 -6.4744
upperneck 7.01938 -5.22907 5.97191
head 3.30079 -2.57279 2.92882
lclavicle -1.21401e-14 9.39282e-16 0
lhumerus -26.5703 -1.86038 88.8724
lradius 24.0674 0 0
lwrist -31.5186 0 0
lhand -28.2526 30.0695 0
lfingers 7.12502 0 0
lthumb -1.62993 60.0436 0
rclavicle -1.21401e-14 9.39282e-16 0
rhumerus -32.1254 1.89797 -79.8991
rradius 30.2645 0 0
rwrist 3.27215 0 0
rhand -20.2574 -26.8344 0
rfingers 7.12502 0 0
rthumb 6.09862 -56.7911 0
213
root -2.90797 16.2959 -36.1027 3.73045 0.560685 -2.92447
lfemur -23.9225 6.67192 -8.10277
ltibia 48.7788 0 0
lfoot -23.9188 0.290618 0
ltoes -9.99739 0 0
rfemur -23.8884 -7.60303 14.6646
rtibia 50.931 0 0
rfoot -27.7851 2.19827 0
rtoes -8.23203 0 0
lowerback 7.28575 1.95257 -1.72444
upperback -3.73272 2.53169 1.30297
thorax -8.16691 1.37208 1.98162
lowerneck -3.5691 -3.86639 -6.46147
upperneck 7.04478 -5.21773 5.96287
head 3.31057 -2.56687 2.92327
lclavicle -1.19029e-14 1.02346e-15 0
lhumerus -26.5801 -1.84635 88.8947
lradius 23.9843 0 0
lwrist -31.5693 0 0
lhand -28.2611 30.0517 0
lfingers 7.12502 0 0
lthumb -1.63808 60.0259 0
rclavicle -1.19029e-14 1.02346e-15 0
rhumerus -32.1007 1.86035 -79.8825
rradius 30.1976 0 0
rwrist 3.32122 0 0
rhand -20.3155 -26.839 0
rfingers 7.12502 0 0
rthumb 6.0448 -56.818 0
214
root -2.90908 16.2947 -36.1012 3.72122 0.530593 -2.9226
lfemur -23.918 6.65055 -8.09013
ltibia 48.781 0 0
lfoot -23.9342 0.261896 0
ltoes -10.0365 0 0
rfemur -23.8905 -7.60168 14.6628
rtibia 50.954 0 0
rfoot -27.808 2.22819 0
rtoes -8.21116 0 0
lowerback 7.28354 1.95243 -1.73222
upperback -3.73004 2.53001 1.30216
thorax -8.16301 1.37172 1.98553
lowerneck -3.59499 -3.85751 -6.44746
upperneck 7.07194 -5.20528 5.95308
head 3.32097 -2.56038 2.91726
lclavicle -1.16426e-14 1.10927e-15 0
lhumerus -26.5914 -1.83047 88.9189
lradius 23.8929 0 0
lwrist -31.6252 0 0
lhand -28.2705 30.0318 0
lfingers 7.12502 0 0
lthumb -1.64715 60.0062 0
rclavicle -1.16426e-14 1.10927e-15 0
rhumerus -32.0743 1.81852 -79.8635
rradius 30.1234 0 0
rwrist 3.37546 0 0
rhand -20.3796 -26.8438 0
rfingers 7.12502 0 0
rthumb 5.98557 -56.8474 0
215
root -2.91019 16.2936 -36.0996 3.71128 0.498027 -2.92034
lfemur -23.9124 6.62697 -8.07717
ltibia 48.7815 0 0
lfoot -23.9497 0.231085 0
ltoes -10.0779 0 0
rfemur -23.8922 -7.59931 14.6604
rtibia 50.977 0 0
rfoot -27.8315 2.26 0
rtoes -8.18828 0 0
lowerback 7.28126 1.95228 -1.74061
upperback -3.72725 2.52821 1.30125
thorax -8.15895 1.37134 1.9897
lowerneck -3.62273 -3.8476 -6.43214
upperneck 7.10083 -5.1914 5.94228
head 3.33198 -2.55316 2.91068
lclavicle -1.13595e-14 1.1962e-15 0
lhumerus -26.6038 -1.81301 88.9447
lradius 23.7944 0 0
lwrist -31.6854 0 0
lhand -28.2807 30.0102 0
lfingers 7.12502 0 0
lthumb -1.65702 59.9848 0
rclavicle -1.13595e-14 1.1962e-15 0
rhumerus -32.0463 1.77306 -79.8425
rradius 30.0429 0 0
rwrist 3.43419 0 0
rhand -20.4485 -26.8489 0
rfingers 7.12502 0 0
rthumb 5.92178 -56.8789 0
